<svg width="22" height="22" viewBox="0 0 22 22" fill="none" xmlns="http://www.w3.org/2000/svg">
<g id="Frame">
<path id="Vector" fill-rule="evenodd" clip-rule="evenodd" d="M5.79333 2.36225C9.25283 1.96063 12.7472 1.96063 16.2067 2.36225C17.5789 2.52175 18.5625 3.70058 18.5625 5.04808V19.25C18.5623 19.3671 18.5323 19.4822 18.4752 19.5844C18.4181 19.6866 18.3358 19.7725 18.2362 19.834C18.1366 19.8955 18.0229 19.9306 17.906 19.9359C17.789 19.9411 17.6727 19.9165 17.5679 19.8642L11 16.5816L4.43208 19.866C4.3272 19.9184 4.21067 19.943 4.09356 19.9377C3.97645 19.9323 3.86266 19.8971 3.763 19.8354C3.66334 19.7736 3.58112 19.6875 3.52415 19.585C3.46717 19.4825 3.43735 19.3672 3.4375 19.25V5.04808C3.4375 3.70058 4.42108 2.52175 5.79333 2.36225Z" fill="#FF708A"/>
</g>
</svg>
