<svg width="113" height="30" viewBox="0 0 113 30" fill="none" xmlns="http://www.w3.org/2000/svg">
<g id="&#235;&#161;&#156;&#234;&#179;&#160;" clip-path="url(#clip0_194_12925)">
<path id="Vector" d="M21.8172 4.56621C22.0763 4.32518 24.4593 3.57941 24.0254 2.41039C23.8627 1.96448 22.6789 0.986854 22.5162 0.89044C18.7308 -1.25898 11.254 1.15273 11.1172 1.19714C11.1129 1.19853 11.1131 1.19848 11.1088 1.19988C5.37577 3.0848 1.52799 4.34427 1.1244 7.04885C0.696573 9.95333 4.41452 12.8156 6.15601 14.1533C11.296 18.1063 16.0444 17.8592 16.1227 19.673C16.177 20.9505 13.8932 22.5413 11.7178 22.6377C8.34338 22.7884 7.12615 19.2633 4.34824 19.5887C2.02226 19.8598 -0.279618 22.692 0.0277001 24.8432C0.503742 28.2237 7.57807 31.0197 13.4232 29.6398C18.6657 28.3985 23.8539 23.5778 23.2875 19.5043C22.5282 14.0931 12.0192 13.0446 12.2782 8.79635C12.3566 7.50083 13.6883 6.16907 13.7968 6.05459C13.9474 5.89793 15.5322 4.30107 17.6292 4.20466C21.1965 4.04196 23.3779 8.35649 24.5228 7.75991C24.9415 7.54487 24.7332 5.96954 24.4468 3.37814C24.4095 3.04019 24.1499 2.55156 23.9248 2.29674C23.7538 2.10312 23.7261 2.06096 23.5199 1.90524C22.1418 0.864286 19.7675 -0.607328 15.966 0.336066" fill="#FF5271"/>
<path id="Vector_2" d="M53.5633 11.3372C53.4375 11.5754 53.319 11.6849 53.2349 11.7255L53.1888 11.7364C53.1372 11.7486 53.0351 11.7434 52.8178 11.474C52.6509 11.267 52.4757 10.9796 52.2581 10.6228C52.2047 10.5353 52.1487 10.4435 52.0897 10.3476C51.5053 9.39899 50.6814 8.16167 49.2843 7.24895C46.5466 5.45915 42.3826 5.40749 39.0812 7.31975C35.9562 9.13295 34.0673 12.4376 33.9506 15.8501C33.8602 18.4511 34.8071 20.8914 36.2563 22.7602C37.7028 24.6256 39.6706 25.9476 41.6502 26.277C43.3098 26.5528 44.9115 26.1188 46.3771 25.3496C47.8414 24.5809 49.1882 23.4684 50.3506 22.3574C51.228 21.5188 52.0105 20.6706 52.6599 19.9668C52.8697 19.7393 53.0656 19.5269 53.2464 19.3348C53.6217 18.9359 53.9233 18.6332 54.1525 18.4514C54.2187 18.3988 54.2723 18.3617 54.3145 18.3365C54.3216 18.3983 54.3236 18.4821 54.3167 18.5897C54.2992 18.8619 54.2283 19.2393 54.0956 19.6973C53.8311 20.6106 53.3328 21.8055 52.5859 23.0511C51.09 25.546 48.6236 28.2012 45.0961 29.2366C39.5713 30.8576 33.4286 28.0515 30.1528 23.48C26.3607 18.1853 26.67 10.87 30.4696 5.91664C30.7058 5.60912 34.9011 0.327922 41.7231 0.300128C44.199 0.291801 46.9054 0.943789 49.1451 2.13233C51.3885 3.32284 53.1255 5.02979 53.7341 7.10891C54.0426 8.16149 54.0647 9.31769 53.9068 10.2296C53.8279 10.6858 53.7062 11.0667 53.5633 11.3372Z" fill="#FF99AC"/>
<path id="Vector_3" d="M60.2976 1.09419C55.6696 4.23157 55.9295 15.7064 61.17 23.2696C61.8402 24.2345 67.7148 31.0157 74.943 29.8701C82.4886 28.6741 84.5124 18.1735 85.9338 11.685C86.685 8.2587 87.8808 2.78132 85.4022 1.09419C83.7558 -0.0267129 80.4624 0.522183 78.8154 2.44043C74.9562 6.92982 82.4058 15.4526 78.4014 21.3807C76.6914 23.9171 73.905 24.3328 71.4846 23.5816C66.6192 22.0678 63.1518 11.9681 66.2718 4.98847C66.8268 3.75778 67.797 2.15732 67.1214 1.09419C66.1968 -0.35605 62.4642 -0.373384 60.2976 1.09419Z" fill="#FF708A"/>
<path id="Vector_4" d="M96.4614 0.85716C95.3682 1.53805 93.9042 2.6264 92.6124 4.30986C87.9744 10.3467 88.0122 20.8711 93.8826 26.6881C98.4612 31.2238 108.648 30.9825 111.334 26.6881C112.428 24.9403 112.712 22.0613 111.334 20.7316C108.675 18.1689 102.188 23.6375 99.6144 21.4554C95.8128 18.2225 104.873 3.30729 101.191 0.449698C99.9786 -0.493897 97.845 0.245968 96.4614 0.862524V0.85716Z" fill="#FF5271"/>
</g>
<defs>
<clipPath id="clip0_194_12925">
<rect width="112.8" height="30" fill="white"/>
</clipPath>
</defs>
</svg>
