<svg width="20" height="20" viewBox="0 0 20 20" fill="none" xmlns="http://www.w3.org/2000/svg">
<path fill-rule="evenodd" clip-rule="evenodd" d="M5.18061 2.27218C8.38278 1.90927 11.6172 1.90927 14.8194 2.27218C16.0896 2.4163 17 3.48148 17 4.69908V17.5318C16.9999 17.6376 16.972 17.7416 16.9192 17.834C16.8663 17.9263 16.7902 18.004 16.698 18.0595C16.6058 18.1151 16.5006 18.1468 16.3923 18.1516C16.2841 18.1563 16.1764 18.134 16.0794 18.0868L10 15.1207L3.92061 18.0884C3.82352 18.1357 3.71566 18.158 3.60726 18.1532C3.49887 18.1484 3.39354 18.1165 3.30129 18.0608C3.20904 18.005 3.13293 17.9271 3.0802 17.8345C3.02747 17.7419 2.99986 17.6377 3 17.5318V4.69908C3 3.48148 3.91043 2.4163 5.18061 2.27218Z" fill="#FF5271"/>
</svg>
