<svg width="33" height="32" viewBox="0 0 33 32" fill="none" xmlns="http://www.w3.org/2000/svg">
<g id="Frame">
<path id="Vector" d="M21.1426 20.2427C20.5854 20.7998 19.924 21.2418 19.196 21.5433C18.4681 21.8449 17.6878 22.0001 16.8999 22.0001C16.112 22.0001 15.3317 21.8449 14.6038 21.5433C13.8758 21.2418 13.2144 20.7998 12.6572 20.2427M28.8999 16C28.8999 17.5759 28.5895 19.1363 27.9865 20.5922C27.3834 22.0481 26.4995 23.371 25.3852 24.4853C24.2709 25.5996 22.948 26.4835 21.4921 27.0866C20.0362 27.6896 18.4758 28 16.8999 28C15.324 28 13.7636 27.6896 12.3077 27.0866C10.8518 26.4835 9.52892 25.5996 8.41462 24.4853C7.30032 23.371 6.4164 22.0481 5.81335 20.5922C5.21029 19.1363 4.8999 17.5759 4.8999 16C4.8999 12.8174 6.16418 9.76516 8.41462 7.51472C10.6651 5.26428 13.7173 4 16.8999 4C20.0825 4 23.1347 5.26428 25.3852 7.51472C27.6356 9.76516 28.8999 12.8174 28.8999 16ZM13.8999 13C13.8999 13.552 13.6759 14 13.3999 14C13.1239 14 12.8999 13.552 12.8999 13C12.8999 12.448 13.1239 12 13.3999 12C13.6759 12 13.8999 12.448 13.8999 13ZM13.3999 13H13.4106V13.02H13.3999V13ZM20.8999 13C20.8999 13.552 20.6759 14 20.3999 14C20.1239 14 19.8999 13.552 19.8999 13C19.8999 12.448 20.1239 12 20.3999 12C20.6759 12 20.8999 12.448 20.8999 13ZM20.3999 13H20.4106V13.02H20.3999V13Z" stroke="#555555" stroke-width="2" stroke-linecap="round" stroke-linejoin="round"/>
</g>
</svg>
