<svg width="280" height="220" viewBox="0 0 280 220" fill="none" xmlns="http://www.w3.org/2000/svg">
<g clip-path="url(#clip0_63_3986)">
<path d="M253.691 0.143738H0.108276V162.549H253.691V0.143738Z" fill="#E6E6E6"/>
<path d="M246.44 20.5134H7.35938V152.941H246.44V20.5134Z" fill="white"/>
<path d="M253.582 0H0V10.7731H253.582V0Z" fill="#FF5271"/>
<path d="M8.00575 7.50447C9.1085 7.50447 10.0025 6.61051 10.0025 5.50776C10.0025 4.40501 9.1085 3.51105 8.00575 3.51105C6.90299 3.51105 6.00903 4.40501 6.00903 5.50776C6.00903 6.61051 6.90299 7.50447 8.00575 7.50447Z" fill="white"/>
<path d="M15.5847 7.50447C16.6875 7.50447 17.5814 6.61051 17.5814 5.50776C17.5814 4.40501 16.6875 3.51105 15.5847 3.51105C14.482 3.51105 13.588 4.40501 13.588 5.50776C13.588 6.61051 14.482 7.50447 15.5847 7.50447Z" fill="white"/>
<path d="M23.1637 7.50447C24.2665 7.50447 25.1604 6.61051 25.1604 5.50776C25.1604 4.40501 24.2665 3.51105 23.1637 3.51105C22.061 3.51105 21.167 4.40501 21.167 5.50776C21.167 6.61051 22.061 7.50447 23.1637 7.50447Z" fill="white"/>
<path d="M90.5155 34.2539H29.0831V139.201H90.5155V34.2539Z" fill="#E6E6E6"/>
<path d="M152.313 34.2539H101.12V63.1417H152.313V34.2539Z" fill="#FF5271"/>
<path d="M152.313 71.1865H101.12V102.268H152.313V71.1865Z" fill="#E6E6E6"/>
<path d="M152.313 110.313H101.12V139.201H152.313V110.313Z" fill="#E6E6E6"/>
<path d="M224.716 34.2539H163.283V79.9892H224.716V34.2539Z" fill="#E6E6E6"/>
<path d="M224.716 93.4655H163.283V139.201H224.716V93.4655Z" fill="#E6E6E6"/>
<path d="M201.05 83.2748V73.4286C201.05 69.9294 202.44 66.5735 204.914 64.0992C207.389 61.6249 210.745 60.2348 214.244 60.2348C217.743 60.2348 221.099 61.6249 223.573 64.0992C226.048 66.5735 227.438 69.9294 227.438 73.4286V83.2748C227.437 83.7447 227.25 84.1952 226.918 84.5274C226.586 84.8597 226.135 85.0466 225.665 85.0471H202.822C202.352 85.0466 201.902 84.8597 201.57 84.5274C201.237 84.1952 201.051 83.7447 201.05 83.2748Z" fill="#2F2E41"/>
<path d="M233.753 211.411L229.1 212.699L221.917 195.363L228.786 193.462L233.753 211.411Z" fill="#FFB8B8"/>
<path d="M225.408 212.289L234.382 209.806L235.946 215.456L221.321 219.504C221.115 218.762 221.058 217.987 221.152 217.222C221.247 216.458 221.491 215.72 221.87 215.05C222.25 214.38 222.757 213.792 223.364 213.318C223.971 212.844 224.666 212.495 225.408 212.289Z" fill="#2F2E41"/>
<path d="M185.237 214.991H180.408L178.111 196.367H185.238L185.237 214.991Z" fill="#FFB8B8"/>
<path d="M176.959 213.611H186.271V219.474H171.096C171.096 218.704 171.248 217.942 171.542 217.23C171.837 216.519 172.269 215.873 172.813 215.328C173.358 214.784 174.004 214.352 174.716 214.057C175.427 213.763 176.189 213.611 176.959 213.611Z" fill="#2F2E41"/>
<path d="M179.414 110.906C179.759 111.371 180.202 111.755 180.711 112.031C181.22 112.307 181.783 112.468 182.361 112.502C182.939 112.537 183.518 112.444 184.056 112.231C184.594 112.017 185.079 111.689 185.476 111.268L198.312 117.041L197.144 109.821L185.135 105.445C184.383 104.825 183.43 104.501 182.456 104.536C181.482 104.571 180.554 104.962 179.849 105.635C179.144 106.308 178.71 107.217 178.63 108.188C178.55 109.16 178.829 110.127 179.414 110.906Z" fill="#FFB8B8"/>
<path d="M206.083 154.323C202.051 154.323 197.876 153.722 194.367 151.936C192.504 151.006 190.853 149.702 189.518 148.105C188.182 146.508 187.19 144.652 186.605 142.655C184.776 136.865 187.082 131.178 189.311 125.678C190.692 122.27 191.997 119.051 192.336 115.878L192.454 114.751C192.981 109.691 193.437 105.321 195.958 103.682C197.265 102.832 199.022 102.784 201.33 103.533L223.01 110.576L222.213 151.729L222.081 151.773C221.967 151.811 214.325 154.323 206.083 154.323Z" fill="#2F2E41"/>
<path d="M200.952 90.7218C200.952 90.7218 211.585 87.571 219.856 88.7525C219.856 88.7525 215.13 114.746 216.705 123.411C218.281 132.076 189.333 126.759 195.241 118.488L197.21 108.642C197.21 108.642 193.272 104.703 196.816 99.9772L200.952 90.7218Z" fill="#FF5271"/>
<path d="M195.721 153.543L182.615 151.086L187.191 115.873C187.499 114.89 194.587 92.5798 197.806 91.3727C200.143 90.5496 202.533 89.8855 204.96 89.385L205.427 89.2917L202.799 93.2337L192.337 118.304L195.721 153.543Z" fill="#2F2E41"/>
<path d="M188.892 210.676L171.959 207.853L181.462 169.05L195.602 115.984L195.742 116.927C195.753 116.997 197.074 123.929 216.675 120.853L216.847 120.826L216.895 120.994L240.586 204.701L221.291 207.917L203.693 146.845L188.892 210.676Z" fill="#2F2E41"/>
<path d="M212.363 160.133L212.373 159.835C212.385 159.504 213.55 126.605 213.161 113.374C212.77 100.098 217.069 88.6004 217.112 88.4858L217.147 88.3935L217.242 88.3662C222.803 86.7775 227.627 91.5191 227.675 91.5672L227.743 91.6349L226.159 104.701L232.94 152.215L212.363 160.133Z" fill="#2F2E41"/>
<path d="M211.533 84.8179C216.875 84.8179 221.206 80.487 221.206 75.1446C221.206 69.8022 216.875 65.4714 211.533 65.4714C206.19 65.4714 201.859 69.8022 201.859 75.1446C201.859 80.487 206.19 84.8179 211.533 84.8179Z" fill="#FFB8B8"/>
<path d="M197.929 74.2163C197.932 71.4493 199.032 68.7964 200.989 66.8398C202.946 64.8832 205.599 63.7825 208.366 63.7794H210.335C213.102 63.7825 215.755 64.8832 217.711 66.8398C219.668 68.7964 220.769 71.4493 220.772 74.2163V74.4133H216.61L215.191 70.4386L214.907 74.4133H212.756L212.04 72.4079L211.897 74.4133H197.929V74.2163Z" fill="#2F2E41"/>
<path d="M210.581 86.1544C210.385 85.8898 210.269 85.5754 210.244 85.2474C210.22 84.9195 210.288 84.5912 210.442 84.3005C212.529 80.3313 215.451 72.9971 211.572 68.474L211.294 68.149H222.553V85.0528L212.325 86.8574C212.221 86.8757 212.116 86.885 212.011 86.8851C211.732 86.8851 211.457 86.8189 211.208 86.6918C210.959 86.5648 210.744 86.3806 210.581 86.1544Z" fill="#2F2E41"/>
<path d="M165.25 16.3629C157.371 9.71488 147.73 5.50014 137.5 4.23152C127.27 2.9629 116.892 4.69511 107.628 9.21734C98.3643 13.7396 90.6147 20.8569 85.3223 29.7032C80.0299 38.5494 77.4228 48.7433 77.8182 59.0443C78.2137 69.3452 81.5946 79.3092 87.5497 87.7237C93.5048 96.1382 101.777 102.64 111.36 106.439C120.943 110.238 131.424 111.169 141.527 109.12C151.63 107.071 160.919 102.129 168.265 94.8969L233.493 149.936C234.485 150.775 235.77 151.186 237.066 151.077C238.361 150.969 239.56 150.35 240.399 149.358C241.238 148.365 241.648 147.08 241.54 145.785C241.431 144.49 240.813 143.291 239.82 142.452L239.813 142.446L174.585 87.4066C182.163 76.5313 185.406 63.2183 183.679 50.0765C181.952 36.9347 175.38 24.9114 165.25 16.3629ZM161.045 82.1067C155.963 88.129 149.21 92.5091 141.639 94.6933C134.068 96.8775 126.02 96.7675 118.511 94.3774C111.003 91.9873 104.372 87.4243 99.4563 81.2655C94.5411 75.1067 91.5626 67.6287 90.8974 59.7771C90.2322 51.9255 91.9103 44.053 95.7193 37.1551C99.5283 30.2572 105.297 24.6437 112.297 21.0245C119.296 17.4052 127.211 15.9428 135.042 16.8222C142.872 17.7016 150.266 20.8832 156.289 25.9648C160.287 29.3388 163.582 33.4674 165.985 38.1148C168.388 42.7622 169.852 47.8374 170.294 53.0507C170.736 58.2639 170.146 63.5131 168.559 68.4986C166.972 73.484 164.419 78.1081 161.045 82.1067Z" fill="#3F3D56"/>
<path opacity="0.3" d="M104.903 86.863C97.26 80.4133 92.3221 71.3251 91.0696 61.4031C89.8172 51.4811 92.3419 41.4509 98.1424 33.3043C97.3807 34.0714 96.6443 34.8748 95.9332 35.7146C92.5592 39.7132 90.0058 44.3372 88.4188 49.3227C86.8318 54.3081 86.2423 59.5573 86.684 64.7706C87.1256 69.9839 88.5898 75.0591 90.9929 79.7065C93.3959 84.3539 96.6909 88.4825 100.689 91.8565C104.688 95.2305 109.312 97.7839 114.298 99.3709C119.283 100.958 124.532 101.547 129.746 101.106C134.959 100.664 140.034 99.1999 144.681 96.7968C149.329 94.3938 153.457 91.0989 156.831 87.1002C157.541 86.2594 158.209 85.3983 158.836 84.517C151.781 91.6054 142.319 95.7815 132.327 96.2161C122.336 96.6507 112.547 93.312 104.903 86.863Z" fill="black"/>
<path d="M214.638 127.817C215.201 127.955 215.787 127.967 216.354 127.854C216.922 127.741 217.458 127.504 217.925 127.161C218.391 126.818 218.777 126.377 219.054 125.869C219.332 125.361 219.495 124.798 219.531 124.22L233.093 120.456L227.58 115.65L215.547 119.961C214.572 119.964 213.633 120.325 212.906 120.974C212.179 121.624 211.715 122.517 211.603 123.486C211.491 124.454 211.738 125.43 212.298 126.228C212.857 127.026 213.69 127.592 214.638 127.817Z" fill="#FFB8B8"/>
<path d="M220.275 125.825L219.45 117.985L230.778 111.735L223.392 102.794L224.597 92.7515L227.598 91.4654L227.692 91.5854C229.107 93.405 241.518 109.419 241.518 111.399C241.518 113.432 239.143 119.403 235.895 121.027C232.762 122.594 220.995 125.639 220.496 125.768L220.275 125.825Z" fill="#2F2E41"/>
<path d="M279.053 220H128.997C128.893 220 128.793 219.959 128.719 219.885C128.645 219.811 128.604 219.711 128.604 219.606C128.604 219.502 128.645 219.402 128.719 219.328C128.793 219.254 128.893 219.212 128.997 219.212H279.053C279.157 219.212 279.257 219.254 279.331 219.328C279.405 219.402 279.447 219.502 279.447 219.606C279.447 219.711 279.405 219.811 279.331 219.885C279.257 219.959 279.157 220 279.053 220Z" fill="#CCCCCC"/>
</g>
<defs>
<clipPath id="clip0_63_3986">
<rect width="279.447" height="220" fill="white"/>
</clipPath>
</defs>
</svg>
