<svg width="32" height="32" viewBox="0 0 32 32" fill="none" xmlns="http://www.w3.org/2000/svg">
<g id="Frame">
<path id="Vector" fill-rule="evenodd" clip-rule="evenodd" d="M14 5.00001C12.8181 5.00001 11.6478 5.23281 10.5558 5.6851C9.46392 6.13739 8.47177 6.80033 7.63604 7.63605C6.80031 8.47178 6.13738 9.46393 5.68508 10.5559C5.23279 11.6478 5 12.8181 5 14C5 15.1819 5.23279 16.3522 5.68508 17.4442C6.13738 18.5361 6.80031 19.5282 7.63604 20.364C8.47177 21.1997 9.46392 21.8626 10.5558 22.3149C11.6478 22.7672 12.8181 23 14 23C16.3869 23 18.6761 22.0518 20.364 20.364C22.0518 18.6762 23 16.387 23 14C23 11.6131 22.0518 9.32388 20.364 7.63605C18.6761 5.94823 16.3869 5.00001 14 5.00001ZM3 14C3.00023 12.2335 3.42592 10.493 4.24105 8.92575C5.05618 7.35851 6.23678 6.01065 7.68298 4.99618C9.12918 3.9817 10.7984 3.33045 12.5495 3.09751C14.3007 2.86458 16.0821 3.05681 17.7432 3.65796C19.4043 4.2591 20.8962 5.25146 22.0927 6.55111C23.2892 7.85075 24.1551 9.41945 24.6171 11.1245C25.0791 12.8295 25.1237 14.6208 24.7471 16.3467C24.3705 18.0726 23.5837 19.6825 22.4533 21.04L28.7067 27.2933C28.8049 27.3849 28.8837 27.4953 28.9384 27.618C28.993 27.7406 29.0224 27.873 29.0248 28.0073C29.0272 28.1416 29.0025 28.275 28.9522 28.3995C28.9019 28.524 28.827 28.6371 28.732 28.7321C28.6371 28.827 28.524 28.9019 28.3995 28.9522C28.2749 29.0025 28.1416 29.0272 28.0073 29.0248C27.873 29.0224 27.7406 28.993 27.6179 28.9384C27.4953 28.8837 27.3849 28.8049 27.2933 28.7067L21.04 22.4533C19.4336 23.7913 17.4792 24.6439 15.4058 24.911C13.3323 25.1782 11.2256 24.849 9.33255 23.9619C7.43947 23.0748 5.83838 21.6666 4.71684 19.9023C3.59531 18.138 2.99977 16.0906 3 14Z" fill="#555555"/>
</g>
</svg>
